<svg xmlns="http://www.w3.org/2000/svg" width="15.77" height="24.797" viewBox="0 0 15.77 24.797">
  <g id="Group_1173" data-name="Group 1173" transform="translate(-284.236 -382.203)">
    <circle id="Ellipse_282" data-name="Ellipse 282" cx="2.5" cy="2.5" r="2.5" transform="translate(290 402)" fill="#03aa8d"/>
    <g id="facebook-placeholder-for-locate-places-on-maps" transform="translate(284.736 382.703)">
      <path id="Facebook_Places" d="M81.326,5.336a6.679,6.679,0,0,0-.346-.858A7.345,7.345,0,0,0,66.9,6.651v.915c0,.038.013.381.032.553.267,2.134,1.951,4.4,3.209,6.537,1.353,2.287,2.757,4.536,4.148,6.785.858-1.467,1.713-2.954,2.551-4.383.228-.419.494-.839.722-1.239.152-.267.444-.533.577-.781C79.5,12.56,81.675,10.063,81.675,7.6V6.594A7.608,7.608,0,0,0,81.326,5.336ZM74.25,9.93a2.621,2.621,0,0,1-2.51-1.792,2.485,2.485,0,0,1-.07-.667V6.88a2.482,2.482,0,0,1,2.662-2.439,2.7,2.7,0,0,1,2.7,2.745A2.769,2.769,0,0,1,74.25,9.93Z" transform="translate(-66.905 0)" fill="#23a582" stroke="#000" stroke-width="1"/>
    </g>
  </g>
</svg>
